<svg xmlns="http://www.w3.org/2000/svg" width="22" height="22" viewBox="0 0 22 22"><defs><style>.a{fill:none;}.b{fill:#0f0f0f;}</style></defs><path class="a" d="M0,0H22V22H0Z"/><path class="b" d="M2,8.778V3.889A.894.894,0,0,1,2.9,3H19.1a.894.894,0,0,1,.9.889V8.778a2.222,2.222,0,1,0,0,4.444v4.889a.894.894,0,0,1-.9.889H2.9a.894.894,0,0,1-.9-.889V13.222A2.222,2.222,0,1,0,2,8.778ZM3.8,7.416a3.978,3.978,0,0,1,0,7.168v2.638H18.2V14.584a3.978,3.978,0,0,1,0-7.168V4.778H3.8Zm4.5.917h5.4v1.778H8.3Zm0,3.556h5.4v1.778H8.3Z" transform="translate(0)"/></svg>