<svg xmlns="http://www.w3.org/2000/svg" width="64" height="64.049" viewBox="0 0 64 64.049"><defs><style>.a{fill:#7c3f2c;}.b{fill:#954c35;}.c{fill:#5db33a;}.d{fill:#6dc54a;}</style></defs><g transform="translate(0 0)"><path class="a" d="M235.935,10.879a3.316,3.316,0,1,1-1.422-2.722A3.31,3.31,0,0,1,235.935,10.879Zm0,0" transform="translate(-200.62 -6.616)"/><path class="b" d="M262.421,15.038A3.31,3.31,0,0,1,261,17.759a3.315,3.315,0,0,1,0-5.442A3.313,3.313,0,0,1,262.421,15.038Zm0,0" transform="translate(-227.106 -10.776)"/><path class="b" d="M58.166,178.739H19.956A11.886,11.886,0,0,1,8.07,166.853V144.129a11.886,11.886,0,0,1,11.886-11.886H58.166a11.886,11.886,0,0,1,11.886,11.886v22.724A11.885,11.885,0,0,1,58.166,178.739Zm0,0" transform="translate(-7.061 -115.7)"/><path class="c" d="M94.332,175.092V196.92a7.971,7.971,0,0,1-7.97,7.97H48.424a7.971,7.971,0,0,1-7.97-7.97V175.092a7.971,7.971,0,0,1,7.97-7.97H86.362A7.971,7.971,0,0,1,94.332,175.092Zm0,0" transform="translate(-35.393 -146.215)"/><path class="d" d="M120.818,175.092V196.92a7.971,7.971,0,0,1-7.97,7.97H78.7a7.971,7.971,0,0,1-7.97-7.97V175.092a7.971,7.971,0,0,1,7.97-7.97h34.151A7.971,7.971,0,0,1,120.818,175.092Zm0,0" transform="translate(-61.879 -146.215)"/><path d="M51.1,15.533H49.633l-13.76-9.5a4.262,4.262,0,1,0-7.746,0l-13.76,9.5H12.9A12.91,12.91,0,0,0,0,28.429V51.153a12.91,12.91,0,0,0,12.9,12.9H51.1A12.91,12.91,0,0,0,64,51.153V28.429a12.91,12.91,0,0,0-12.9-12.9ZM32,1.894a2.369,2.369,0,1,1-2.369,2.369A2.371,2.371,0,0,1,32,1.894Zm29.98,49.26A10.888,10.888,0,0,1,51.1,62.029H12.9A10.888,10.888,0,0,1,2.019,51.153V28.429A10.888,10.888,0,0,1,12.9,17.553H21.9a1.01,1.01,0,1,0,0-2.02H17.7L29.281,7.542a4.252,4.252,0,0,0,5.438,0L46.3,15.533H25.692a1.01,1.01,0,1,0,0,2.02H51.1A10.888,10.888,0,0,1,61.98,28.429Zm0,0" transform="translate(0 0)"/><path d="M120.364,201.166a1.009,1.009,0,0,0-.606,1.293c.566,1.568.412.459.412,24.194a6.968,6.968,0,0,1-6.96,6.96c-41.25,0-38.848.22-40.665-.554a1.01,1.01,0,1,0-.791,1.858,8.923,8.923,0,0,0,3.517.715h37.939a8.99,8.99,0,0,0,8.98-8.98c0-23.708.191-22.882-.532-24.881a1.009,1.009,0,0,0-1.293-.606Zm0,0" transform="translate(-62.24 -175.948)"/><path d="M41.359,161.074H79.3a6.939,6.939,0,0,1,4.74,1.863,1.01,1.01,0,0,0,1.376-1.479,8.95,8.95,0,0,0-6.115-2.4H41.359a8.99,8.99,0,0,0-8.98,8.98v21.828a8.988,8.988,0,0,0,2.074,5.741,1.01,1.01,0,1,0,1.552-1.292,6.966,6.966,0,0,1-1.607-4.449V168.034a6.967,6.967,0,0,1,6.96-6.96Zm0,0" transform="translate(-28.328 -139.157)"/><path d="M68.113,209.238a.77.77,0,0,0-.856.7v11.348c0,.958,2.27.947,2.27,0v-4.05h1.955c2.545,0,4.1-1.279,4.1-4.068,0-2.864-1.746-3.928-3.963-3.928Zm5.2,4v.21c0,1.362-.7,2.008-1.833,2.008H69.528v-4.225h1.956c1.135,0,1.833.646,1.833,2.008Zm0,0" transform="translate(-58.844 -183.063)"/><path d="M153.32,212.887c0-2.776-1.851-3.649-4.138-3.649h-3.457a.709.709,0,0,0-.733.7v11.348c0,.947,2.27.959,2.27,0v-4.557h1.467l2.479,4.819c.69,1.38,2.671-.226,2.112-.926l-2.287-4.243a3.282,3.282,0,0,0,2.287-3.491Zm-4.138,2.06h-1.92v-3.719h1.92a1.859,1.859,0,1,1,0,3.719Zm0,0" transform="translate(-126.854 -183.063)"/><path d="M231.754,211.228c.941,0,.968-1.99,0-1.99h-6.215c-.506,0-1,.245-1,.716v11.331c0,.471.489.716,1,.716h6.215c.968,0,.941-1.99,0-1.99h-4.941V216.5h2.653c.966,0,.937-1.781,0-1.781h-2.653v-3.492Zm0,0" transform="translate(-196.454 -183.063)"/><path d="M70.23,340.082c2.3,0,4.1-1.082,4.1-4v-4.871c0-2.916-1.8-4-4.1-4s-4.085,1.082-4.085,4v4.871C66.144,339,67.925,340.082,70.23,340.082Zm-1.816-8.869c0-1.379.664-2.008,1.816-2.008,1.135,0,1.833.628,1.833,2.008v4.871c0,1.379-.7,2.008-1.833,2.008-1.152,0-1.816-.628-1.816-2.008Zm0,0" transform="translate(-57.87 -286.281)"/><path d="M148.221,339.977c.576,0,1.135-.244,1.135-.716V334.7h1.466l2.479,4.819a.892.892,0,0,0,.785.541c.934,0,1.681-1.024,1.327-1.466l-2.287-4.243a3.282,3.282,0,0,0,2.287-3.492c0-2.776-1.851-3.649-4.138-3.649h-3.457a.709.709,0,0,0-.733.7v11.348c0,.472.576.716,1.135.716Zm1.135-10.772h1.92a1.859,1.859,0,1,1,0,3.719h-1.92Zm0,0" transform="translate(-128.686 -286.281)"/><path d="M227.632,339.977h3.09c2.3,0,4.1-1.082,4.1-4v-4.766c0-2.916-1.8-4-4.1-4h-3.09c-.594,0-1,.332-1,.7v11.366C226.637,339.645,227.039,339.977,227.632,339.977Zm1.274-10.772h1.816c1.152,0,1.833.646,1.833,2.008v4.766c0,1.361-.681,2.007-1.833,2.007h-1.816Zm0,0" transform="translate(-198.286 -286.281)"/><path d="M314.793,329.205c.941,0,.968-1.99,0-1.99h-6.215c-.507,0-1,.244-1,.716v11.331c0,.471.489.716,1,.716h6.215c.968,0,.941-1.99,0-1.99h-4.941v-3.509h2.653a.79.79,0,0,0,.716-.873c0-.471-.262-.907-.716-.907h-2.653v-3.492Zm0,0" transform="translate(-269.105 -286.282)"/><path d="M389.878,330.864c0-2.776-1.851-3.649-4.137-3.649h-3.457a.708.708,0,0,0-.733.7v11.348c0,.947,2.269.959,2.269,0V334.7h1.466l2.479,4.819c.687,1.373,2.675-.221,2.112-.925l-2.287-4.242A3.282,3.282,0,0,0,389.878,330.864Zm-4.137,2.06h-1.92v-3.719h1.92a1.859,1.859,0,1,1,0,3.719Zm0,0" transform="translate(-333.821 -286.282)"/></g></svg>