<svg xmlns="http://www.w3.org/2000/svg" width="96" height="96" viewBox="0 0 96 96"><defs><style>.a{fill:#f0cd00;}.b{fill:#ffde50;}.c{fill:#ffea94;}.d{fill:#faa300;}.e{fill:#ffbd00;}.f{fill:#f68e00;}</style></defs><path class="a" d="M96,48A48.087,48.087,0,1,1,80.5,12.676,48,48,0,0,1,96,48Z"/><path class="b" d="M110.666,48.137A48,48,0,0,1,64.453,96.1a48,48,0,0,1,0-95.933A48,48,0,0,1,110.666,48.137Z" transform="translate(-14.666 -0.137)"/><path class="c" d="M107.56,39.749,39.739,107.57a48.206,48.206,0,0,1-6.079-8.2l65.7-65.7A47.983,47.983,0,0,1,107.56,39.749Z" transform="translate(-27.065 -27.073)"/><path class="c" d="M167.782,105.545l-62.239,62.239A47.935,47.935,0,0,1,93.39,160.8L160.8,93.39A47.849,47.849,0,0,1,167.782,105.545Z" transform="translate(-75.093 -75.093)"/><path class="d" d="M129.218,91.919a37.3,37.3,0,0,1-74.594.458c0-.153,0-.306,0-.458a37.3,37.3,0,0,1,37.3-37.3c.153,0,.308,0,.46,0a37.125,37.125,0,0,1,21.026,6.8,37.547,37.547,0,0,1,10.276,10.93A37.119,37.119,0,0,1,129.218,91.919Z" transform="translate(-43.919 -43.919)"/><path class="e" d="M118.292,65.544,65.544,118.291a37.164,37.164,0,0,1-10.92-25.914c0-.153,0-.306,0-.458a37.3,37.3,0,0,1,37.3-37.3c.153,0,.308,0,.46,0a37.125,37.125,0,0,1,21.026,6.8A37.64,37.64,0,0,1,118.292,65.544Z" transform="translate(-43.919 -43.919)"/><path class="f" d="M273.65,91.919a37.3,37.3,0,0,1-37.3,37.3q-1.061,0-2.106-.059a37.3,37.3,0,0,0,0-74.48q1.046-.059,2.106-.059A37.3,37.3,0,0,1,273.65,91.919Z" transform="translate(-188.352 -43.919)"/><path class="f" d="M126.853,144.231a3.918,3.918,0,0,0-5.337,1.49c-2.912,5.168-7.7,8.253-12.805,8.253-5.032,0-9.512-2.937-12.353-7.479h10.792a3.918,3.918,0,1,0,0-7.837H93.465a23.121,23.121,0,0,1,0-7.3h13.684a3.918,3.918,0,0,0,0-7.837H96.357c2.841-4.542,7.321-7.479,12.353-7.479,5.106,0,9.893,3.085,12.805,8.253a3.918,3.918,0,0,0,6.827-3.848c-4.32-7.665-11.659-12.242-19.632-12.242a21.844,21.844,0,0,0-16.741,8.082,27.154,27.154,0,0,0-4.392,7.234H82.594a3.918,3.918,0,1,0,0,7.837h2.959a31.064,31.064,0,0,0,0,7.3H82.594a3.918,3.918,0,1,0,0,7.837h4.983a27.157,27.157,0,0,0,4.392,7.234,21.844,21.844,0,0,0,16.741,8.082c7.973,0,15.312-4.576,19.632-12.242A3.918,3.918,0,0,0,126.853,144.231Z" transform="translate(-63.262 -87.01)"/><path class="c" d="M151.856,144.231a3.918,3.918,0,0,0-5.337,1.49c-2.912,5.168-7.7,8.253-12.805,8.253-5.032,0-9.512-2.937-12.353-7.479h10.792a3.918,3.918,0,0,0,0-7.837H118.468a23.121,23.121,0,0,1,0-7.3h13.684a3.918,3.918,0,0,0,0-7.837H121.36c2.841-4.542,7.321-7.479,12.353-7.479,5.106,0,9.893,3.085,12.805,8.253a3.918,3.918,0,1,0,6.827-3.848c-4.32-7.665-11.659-12.242-19.632-12.242a21.844,21.844,0,0,0-16.741,8.082,27.154,27.154,0,0,0-4.392,7.234H107.6a3.918,3.918,0,1,0,0,7.837h2.959a31.063,31.063,0,0,0,0,7.3H107.6a3.918,3.918,0,1,0,0,7.837h4.983a27.158,27.158,0,0,0,4.392,7.234,21.844,21.844,0,0,0,16.741,8.082c7.973,0,15.312-4.576,19.632-12.242A3.919,3.919,0,0,0,151.856,144.231Z" transform="translate(-83.366 -87.01)"/></svg>