<svg xmlns="http://www.w3.org/2000/svg" width="214.327" height="237.069" viewBox="0 0 214.327 237.069"><defs><style>.a{fill:none;stroke:#f9a395;stroke-linecap:round;stroke-linejoin:round;stroke-width:1.726px;}.b{fill:#f3d5ce;}.c{fill:#ef2d28;}.d{fill:#ffc7bb;}.e{fill:#ffd269;}.f{fill:#ffb85a;}.g{fill:#1a1a1a;}.h{fill:#28201e;}</style></defs><g transform="translate(-532.034 -123.041)"><line class="a" x2="212.601" transform="translate(532.897 255.306)"/><g transform="translate(549.963 116.224)"><g transform="translate(56.792 6.817)"><path class="b" d="M646.251,121.071c-136.885,0,0,235.724,0,235.724S783.138,121.071,646.251,121.071Zm0,103.515a42.871,42.871,0,1,1,42.871-42.871A42.871,42.871,0,0,1,646.251,224.586Z" transform="translate(-585.413 -121.071)"/></g><g transform="translate(0 32.039)"><g transform="translate(68.884 199.68)"><g transform="translate(0 2.442)"><path class="c" d="M616.217,289.794c-1.027-.691-7.258-4.627-11.139-7.074l-5.069,4-5.769-.682-.226,3.541a1.545,1.545,0,0,0,1.446,1.643l18.753,1.2C618.262,292.68,617.726,290.81,616.217,289.794Z" transform="translate(-594.011 -282.72)"/></g><g transform="translate(0.23)"><path class="d" d="M605.012,283.426l-3.128-1.972-7.342-.47-.368,5.756,5.769.682Z" transform="translate(-594.174 -280.984)"/></g></g><rect class="e" width="59.714" height="62.342" rx="3.41" transform="translate(38.214 32.555)"/><path class="f" d="M1.692,0H13.015a1.692,1.692,0,0,1,1.692,1.692V60.65a1.692,1.692,0,0,1-1.692,1.692H1.693A1.693,1.693,0,0,1,0,60.65V1.692A1.692,1.692,0,0,1,1.692,0Z" transform="translate(31.224 32.555)"/><g transform="translate(75.184 91.644)"><path class="g" d="M598.611,219.587C597.175,206.4,609,204.74,609,204.74s10.817-3.99,13.068,9.081c1.727,10.029,2.164,35.052,2.121,47.33a7.154,7.154,0,0,1-6.292,6.921h0a7.155,7.155,0,0,1-7.955-4.921C606.518,251.361,599.712,229.7,598.611,219.587Z" transform="translate(-598.49 -204.166)"/></g><g transform="translate(66.756 144.428)"><path class="g" d="M611.5,244.9c1.088-2.465,2.586-.262,4.863-1.72,3.361-2.152,8.187-2.228,9.555,1.522.4,1.082,1.021,1.813-.066,5.005-1.775,5.206-20.752,48.752-20.752,48.752l-12.6-.641S609.275,249.935,611.5,244.9Z" transform="translate(-592.498 -241.698)"/></g><g transform="translate(52.579 74.067)"><path class="g" d="M583.479,206.533c3.177-13.437,22.194-14.864,22.194-14.864s8.218,12.718,5.808,26.314c-1.848,10.431-11.075,37.534-15.269,49.586a7.022,7.022,0,0,1-7.979,4.707h0a7.019,7.019,0,0,1-5.46-7.483C583.7,252.064,581.04,216.844,583.479,206.533Z" transform="translate(-582.418 -191.669)"/></g><g transform="translate(80.546 39.09)"><path class="d" d="M602.378,178.886s-1.586-7.693,9.885-8.782c10.047-.952,24.85-2.71,30.955-3.29a4.3,4.3,0,0,1,4.363,3.769h0a4.642,4.642,0,0,1-3,5.233c-5.913,1.629-20.074,5.226-29.838,7.763C603.6,186.476,602.378,178.886,602.378,178.886Z" transform="translate(-602.303 -166.799)"/></g><path class="d" d="M554.723,211.754c.4.526,4.519-2.29,4.519-2.29s-4.794,5.042-4.336,5.574,5.488-4.223,5.488-4.223-4.491,6.136-3.934,6.569,5.129-5.129,5.129-5.129-3.768,6.181-3.031,6.436,6.215-7.268,6.215-7.268-1.944,4.915-1.51,5.41c.3.345.942-.789,2.07-2.5a47.1,47.1,0,0,0,3.907-8.422l-4.956-2.105S554.321,211.228,554.723,211.754Z" transform="translate(-541.098 -112.671)"/><g transform="translate(117.63 10.351)"><path class="d" d="M636.052,183.312a4.3,4.3,0,0,1-7.35-3.52,50.122,50.122,0,0,1,2.788-11.094c2.882-8.067,5.794-12.5,7.572-17.393.593-1.634,1.9-5.377,3.624-4.9h0c1.721.477,2.847,1.686,2.513,3.392-1,5.108-3.634,17.97-5.385,26.353A13.688,13.688,0,0,1,636.052,183.312Z" transform="translate(-628.671 -146.364)"/></g><g transform="translate(59.764 42.454)"><path class="d" d="M590.225,170.842c.3-.069.6-.138.9-.2a61.017,61.017,0,0,1,26.411,0c.305.068.61.136.913.207a2.73,2.73,0,0,1,2.062,2.135c1.426,7.291.08,31.06-.418,38.918a2.72,2.72,0,0,1-2.72,2.548H591.3a2.722,2.722,0,0,1-2.721-2.548c-.5-7.858-1.844-31.627-.416-38.918A2.725,2.725,0,0,1,590.225,170.842Z" transform="translate(-587.526 -169.191)"/></g><g transform="translate(71.09 31.582)"><rect class="d" width="10.995" height="13.351"/></g><g transform="translate(129.008)"><path class="d" d="M648.413,144.546c-.855-.855-3.464,2.811-3.056,3.056s2.92-5.472,2.439-6.031-3.678,5.15-3.678,5.15,4.538-6.232,4.1-6.825c-.886-1.193-4.832,5.561-4.832,5.561s5.59-5.281,4.447-6.367c-1.066-1.014-7.787,7.242-7.787,7.242s2.1-4.889,1.648-5.408c-.315-.36-1.046.561-2.232,2.36-2.176,3.305-2.7,9.049-2.7,9.049l3.789,1.986S648.9,145.037,648.413,144.546Z" transform="translate(-636.761 -139.005)"/></g><g transform="translate(0 115.544)"><path class="c" d="M546.814,231.919c1.228.153,8.565.857,13.132,1.29l2.721-5.853,5.457-1.993-1.4-3.263a1.546,1.546,0,0,0-2.031-.814l-17.279,7.385C543.688,230.265,545.01,231.693,546.814,231.919Z" transform="translate(-545.032 -221.16)"/><g transform="translate(14.914 4.202)"><path class="d" d="M555.636,231.994l3.57.339,6.8-2.937-2.191-5.249-5.457,1.993Z" transform="translate(-555.636 -224.148)"/></g><g transform="translate(14.105 6.569)"><path class="g" d="M605.388,245.485c4.558,3.08,1.007,9.108,1.007,9.108s-3.55,6.028-8.454,3.536-42.88-24.512-42.88-24.512l9.976-7.786S600.831,242.405,605.388,245.485Z" transform="translate(-555.061 -225.831)"/></g></g><g transform="translate(30.055 43.562)"><path class="d" d="M606.613,172.985s4.163,6.661-6.215,11.67c-9.088,4.387-22.355,11.185-27.878,13.85a4.3,4.3,0,0,1-5.4-2.017h0a4.3,4.3,0,0,1,.8-5.709c4.976-3.584,17.2-12.123,25.469-17.9C602.828,166.292,606.613,172.985,606.613,172.985Z" transform="translate(-566.402 -169.979)"/></g><g transform="translate(20.862 62.887)"><path class="d" d="M575.676,184.021s5.524,2.188,1.425,10.319c-3.59,7.121-9.428,18.075-11.611,22.4-.729,1.446-1.788,1.706-3.43,1.011h0a3.359,3.359,0,0,1-2.065-3.974c1.439-4.641,5.084-15.874,7.555-23.474C570.369,181.632,575.676,184.021,575.676,184.021Z" transform="translate(-559.866 -183.72)"/></g><path class="g" d="M590.283,195.01h32.26s5.725,11.064,6.741,27.9L608.7,228.323,582.418,217.7S584.134,203.963,590.283,195.01Z" transform="translate(-529.838 -116.244)"/><path class="c" d="M611,175.627s-8.974.8-12.5,2.077-19.456,8.308-26.165,14.437-14.69,32.628-14.69,32.628l12.354,4.8,8.384-14.8a28.638,28.638,0,0,1,11.364-11.113h0a3.507,3.507,0,0,1,5.184,2.925c.073,2.908-.526,7.161-2.958,13a33.918,33.918,0,0,0-2.823,11.21,8,8,0,0,0,7.078,8.3,93.594,93.594,0,0,0,42.4-5.33c8.008-7.469-1.048-19.377-1.216-28.1-.061-3.141-.229-5.868-.421-8.073a6.493,6.493,0,0,1,5.478-7.015A142.6,142.6,0,0,0,661.72,186.4c11.524-3.522,14.1-31.641,14.1-31.641l-11.4-3.785-7.884,17.611-34.55,6.039S617.957,181.162,611,175.627Z" transform="translate(-539.906 -134.141)"/><path class="h" d="M596.016,164.152a16.928,16.928,0,0,0,10.381,3.7v-5.7Z" transform="translate(-524.312 -129.597)"/><g transform="translate(82.92 20.614)"><ellipse class="d" cx="2.557" cy="3.296" rx="2.557" ry="3.296"/></g><g transform="translate(64.272 20.614)"><ellipse class="d" cx="2.557" cy="3.296" rx="2.557" ry="3.296"/></g><path class="d" d="M602.824,145.2c-9.1,0-9.215,8.253-9.215,8.253l-.762,9.154a9.808,9.808,0,0,0,9.735,10.011c5.506,0,8.495-4.5,8.495-10.011v-9.154A8.278,8.278,0,0,0,602.824,145.2Z" transform="translate(-525.6 -136.488)"/><path class="e" d="M592.547,168.944s-3.343,27.55-14.856,39.064l3.119,3.119s19.58-10.836,19.58-43.082C600.554,168.045,592.547,168.944,592.547,168.944Z" transform="translate(-531.759 -127.203)"/><path class="e" d="M606.74,167.655,618.527,206h0a81.325,81.325,0,0,0,.16-24.739l-2.439-16.57Z" transform="translate(-519.954 -128.565)"/></g><path class="h" d="M593.7,160.409s-1.045-.759-2.089-6.583l-.031-.176a9.72,9.72,0,0,1,9.63-11.309H603.3a9.874,9.874,0,0,1,9.829,11.122,40.42,40.42,0,0,1-1.482,6.946c-.752-6.419-4.761-9.592-9.115-9.592S593.7,153.862,593.7,160.409Z" transform="translate(-526.173 -105.61)"/></g></g></svg>