<svg xmlns="http://www.w3.org/2000/svg" xmlns:xlink="http://www.w3.org/1999/xlink" width="700" height="70" viewBox="0 0 700 70"><defs><style>.a,.b{fill:#fff;}.a{stroke:#707070;}.c{fill:#6f6b69;font-size:18px;font-family:Nunito-Regular, Nunito;}.d{clip-path:url(#a);}.e{fill:none;}</style><clipPath id="a"><rect class="a" width="24" height="24" transform="translate(230 711)"/></clipPath></defs><g transform="translate(-710 -574)"><rect class="b" width="700" height="70" rx="35" transform="translate(710 574)"/><g class="d" transform="translate(510 -114)"><g transform="translate(230 711)"><path class="e" d="M0,0H24V24H0Z"/><path d="M12,20.9l4.95-4.95a7,7,0,1,0-9.9,0Zm0,2.828L5.636,17.364a9,9,0,1,1,12.728,0ZM12,13a2,2,0,1,0-2-2A2,2,0,0,0,12,13Zm0,2a4,4,0,1,1,4-4A4,4,0,0,1,12,15Z"/></g></g></g></svg>