<svg xmlns="http://www.w3.org/2000/svg" width="31" height="31" viewBox="0 0 31 31"><path d="M17.5,33A15.5,15.5,0,1,1,33,17.5,15.5,15.5,0,0,1,17.5,33ZM13.95,29.384A27.745,27.745,0,0,1,11.342,19.05H5.2a12.412,12.412,0,0,0,8.754,10.334Zm.5-10.334A24.668,24.668,0,0,0,17.5,29.516,24.653,24.653,0,0,0,20.553,19.05H14.446Zm15.357,0H23.658a27.745,27.745,0,0,1-2.609,10.334A12.412,12.412,0,0,0,29.8,19.05ZM5.2,15.95h6.146A27.745,27.745,0,0,1,13.951,5.616,12.412,12.412,0,0,0,5.2,15.95Zm9.252,0h6.1A24.653,24.653,0,0,0,17.5,5.484,24.653,24.653,0,0,0,14.446,15.95Zm6.6-10.334A27.745,27.745,0,0,1,23.658,15.95H29.8A12.412,12.412,0,0,0,21.049,5.616Z" transform="translate(-2 -2)"/></svg>