<svg xmlns="http://www.w3.org/2000/svg" width="29" height="29" viewBox="0 0 29 29"><path d="M20.722,28.778h8.056V6.222H6.222V28.778H17.5V20.722H14.278V17.5H17.5V14.835a7.036,7.036,0,0,1,.644-3.723,4.392,4.392,0,0,1,1.83-1.829,6.385,6.385,0,0,1,2.718-.614,10.4,10.4,0,0,1,2.059.129v3.061h-.807a5.843,5.843,0,0,0-2.452.264,1.171,1.171,0,0,0-.506.506c-.193.364-.264.725-.264,2.2V17.5H24.75l-.806,3.222H20.722ZM4.611,3H30.389A1.611,1.611,0,0,1,32,4.611V30.389A1.611,1.611,0,0,1,30.389,32H4.611A1.611,1.611,0,0,1,3,30.389V4.611A1.611,1.611,0,0,1,4.611,3Z" transform="translate(-3 -3)"/></svg>